<svg xmlns="http://www.w3.org/2000/svg" width="13.996" height="14" viewBox="0 0 13.996 14">
  <g id="Grupo_8605" data-name="Grupo 8605" transform="translate(-834.14 -816.235)">
    <path id="Trazado_8323" data-name="Trazado 8323" d="M843.708,830.235h-8.474a.182.182,0,0,0-.037-.018,1.228,1.228,0,0,1-1.057-1.288V817.541a1.237,1.237,0,0,1,1.3-1.3q3.246,0,6.492,0a1.348,1.348,0,0,1,.975.387q.714.685,1.437,1.364a1.381,1.381,0,0,1,.455,1.07c-.005,1.239,0,2.479,0,3.718v.171l.1-.117c.344-.407.686-.816,1.033-1.221a1.22,1.22,0,0,1,2.029.15,2.668,2.668,0,0,1,.168.44v.328a1.758,1.758,0,0,1-.379.741q-1.44,1.7-2.869,3.4a.389.389,0,0,0-.083.229c-.006.683,0,1.366,0,2.048a1.185,1.185,0,0,1-.511,1.045A3.235,3.235,0,0,1,843.708,830.235Zm-2.187-13.179h-6.027c-.4,0-.534.138-.534.533v11.29c0,.4.138.536.531.536h7.954c.045,0,.091,0,.136,0a.4.4,0,0,0,.4-.393c.006-.423,0-.847,0-1.27,0-.006-.012-.011-.014-.012-.113.063-.221.133-.336.184-.466.206-.935.405-1.4.61a.42.42,0,0,1-.607-.514q.174-.723.344-1.447a1.457,1.457,0,0,1,.31-.63q.814-.959,1.621-1.922a.4.4,0,0,0,.084-.229c0-1.376,0-2.752,0-4.128v-.146h-1.936c-.384,0-.524-.141-.524-.528Zm4.28,5.983-2.265,2.682.627.527,2.264-2.683Zm-1.912-4.348-1.538-1.469v1.469Zm3.063,4.243c.032-.034.061-.062.087-.093.069-.083.144-.164.2-.253a.4.4,0,0,0-.629-.5c-.1.1-.184.211-.283.327Zm-3.942,3.417c-.332.3-.279.735-.4,1.111.345-.192.783-.211,1.021-.591Z" fill="#00a987"/>
    <path id="Trazado_8325" data-name="Trazado 8325" d="M839.484,821.185q1.614,0,3.226,0a.409.409,0,0,1,.425.543.4.4,0,0,1-.357.274,1.248,1.248,0,0,1-.137,0H836.3c-.328,0-.519-.151-.519-.41s.191-.41.519-.41Z" fill="#00a987"/>
    <path id="Trazado_8326" data-name="Trazado 8326" d="M839.485,823.646h3.225a.409.409,0,0,1,.425.543.4.4,0,0,1-.357.275,1.248,1.248,0,0,1-.137,0H836.3c-.328,0-.519-.151-.519-.41s.191-.41.519-.41Z" fill="#00a987"/>
    <path id="Trazado_8327" data-name="Trazado 8327" d="M838.23,819.517c-.669,0-1.339,0-2.009,0a.41.41,0,1,1-.02-.818c.182,0,.364,0,.546,0q1.75,0,3.5,0a.412.412,0,0,1,.427.553.417.417,0,0,1-.42.266Z" fill="#00a987"/>
    <path id="Trazado_8328" data-name="Trazado 8328" d="M838.234,826.927c-.674,0-1.348,0-2.022,0a.408.408,0,0,1-.395-.574.413.413,0,0,1,.407-.246h1.708c.775,0,1.549,0,2.324,0a.411.411,0,0,1,.414.562.421.421,0,0,1-.427.257Z" fill="#00a987"/>
  </g>
</svg>
