<svg id="MENU_OPTION" data-name="MENU OPTION" xmlns="http://www.w3.org/2000/svg" width="50" height="50" viewBox="0 0 50 50">
  <rect id="Rectangle_4382" data-name="Rectangle 4382" width="50" height="50" rx="5" fill="#fff" opacity="0.0"/>
  <g id="Group_7446" data-name="Group 7446" transform="translate(-170.859 -72.223)">
    <g id="Group_7444" data-name="Group 7444">
      <path id="Path_7539" data-name="Path 7539" d="M196.83,109.571a1.593,1.593,0,0,1,.252-1.591.7.7,0,0,0-.382-1.07,1.479,1.479,0,0,1-1.2-1.764c.088-.538.189-1.073.3-1.607a1.477,1.477,0,0,1,1.743-1.227.706.706,0,0,0,.747-.887,1.475,1.475,0,0,1,.88-1.882c.541-.216,1.091-.412,1.646-.583a1.5,1.5,0,0,1,1.893.94.7.7,0,0,0,1.1.209,1.486,1.486,0,0,1,2.155-.161q.632.519,1.242,1.062a1.485,1.485,0,0,1,.186,2.1.709.709,0,0,0,.385,1.1,1.482,1.482,0,0,1,1.181,1.745c-.087.55-.19,1.1-.3,1.642a1.477,1.477,0,0,1-1.726,1.206.7.7,0,0,0-.751.878,1.488,1.488,0,0,1-.958,1.908c-.512.186-1.026.37-1.542.545a1.47,1.47,0,0,1-1.9-.886.7.7,0,0,0-1.141-.221,1.474,1.474,0,0,1-2.126.139c-.421-.346-.84-.694-1.239-1.065A4,4,0,0,1,196.83,109.571Zm9.813-7.515c-.11-.118-.178-.206-.26-.278-.251-.22-.512-.429-.761-.651-.666-.594-.732-.635-1.3.092a.7.7,0,0,1-.853.245,3.215,3.215,0,0,0-.87-.168.752.752,0,0,1-.814-.649,1.9,1.9,0,0,0-.1-.28c-.14-.353-.3-.428-.665-.305-.306.1-.607.217-.912.32-.86.293-.944.306-.589,1.193a.693.693,0,0,1-.2.834,6.7,6.7,0,0,0-.693.818.639.639,0,0,1-.7.29c-.145-.031-.291-.057-.437-.081-.428-.069-.541,0-.622.418-.087.449-.169.9-.249,1.35s0,.6.439.629a1.014,1.014,0,0,1,1.075.985.365.365,0,0,0,.045.141,1.2,1.2,0,0,1-.228,1.734c-.219.183-.149.423.068.6q.4.335.79.676c.707.615.725.652,1.325-.09a.688.688,0,0,1,.821-.242,2.957,2.957,0,0,0,.833.167.834.834,0,0,1,.911.738,2.456,2.456,0,0,0,.086.245.39.39,0,0,0,.581.267c.325-.12.654-.232.98-.348.878-.31.887-.314.577-1.195a.67.67,0,0,1,.187-.8,2.286,2.286,0,0,0,.5-.546.948.948,0,0,1,1.3-.5,1,1,0,0,0,.145.027.39.39,0,0,0,.51-.347c.067-.34.127-.682.192-1.022.172-.895.24-.98-.754-1.127a.669.669,0,0,1-.6-.566,6.481,6.481,0,0,0-.36-1.009.642.642,0,0,1,.089-.755,3.891,3.891,0,0,0,.357-.426A2.093,2.093,0,0,0,206.643,102.056Z" fill="#fff"/>
      <path id="Path_7540" data-name="Path 7540" d="M199.388,106.565a3.017,3.017,0,0,1,5.679-2.037,3.017,3.017,0,1,1-5.679,2.037Zm1.049-.378a1.9,1.9,0,0,0,2.406,1.175,1.925,1.925,0,0,0,1.181-2.439,1.9,1.9,0,0,0-2.446-1.149A1.878,1.878,0,0,0,200.437,106.187Z" fill="#fff"/>
    </g>
    <g id="Group_7445" data-name="Group 7445">
      <path id="Path_7541" data-name="Path 7541" d="M198.17,99.272a7.439,7.439,0,0,1,3.272-1.022,5.145,5.145,0,0,0-3.714-2.122c-1.688-.126-3.393-.024-5.09-.024v-.055c-1.467,0-2.934-.011-4.4,0a5.429,5.429,0,0,0-5.484,5.5c-.008.941-.025,1.884.012,2.825a1.978,1.978,0,0,0,.289.945,1.37,1.37,0,0,0,1.59.545,1.473,1.473,0,0,0,1.066-1.461c.018-.957-.005-1.914.009-2.871a2.414,2.414,0,0,1,2.425-2.511q4.468-.051,8.939,0A2.579,2.579,0,0,1,198.17,99.272Z" fill="#fff"/>
      <path id="Path_7542" data-name="Path 7542" d="M198.544,88.153a5.927,5.927,0,1,1-5.906-5.93A5.926,5.926,0,0,1,198.544,88.153Zm-2.966-.014a2.951,2.951,0,0,0-2.976-2.95,2.963,2.963,0,0,0,.024,5.926A2.953,2.953,0,0,0,195.578,88.139Z" fill="#fff"/>
    </g>
  </g>
</svg>
