<svg id="MENU_OPTION" data-name="MENU OPTION" xmlns="http://www.w3.org/2000/svg" width="50" height="50" viewBox="0 0 50 50">
  <rect id="Rectangle_4382" data-name="Rectangle 4382" width="50" height="50" rx="5" fill="#fff" opacity="0.0"/>
  <g id="Group_7442" data-name="Group 7442" transform="translate(-476.234 -186.59)">
    <path id="Path_7534" data-name="Path 7534" d="M503.419,221.134a3.386,3.386,0,0,1,2.9-.754.654.654,0,0,0,.487-.274c1.575-2.177,3.143-4.36,4.685-6.561a.853.853,0,0,0,0-.708,3.122,3.122,0,0,1,.349-3.487,3.126,3.126,0,0,1,5.539,1.7,3.125,3.125,0,0,1-3.623,3.378.645.645,0,0,0-.77.3q-2.275,3.213-4.582,6.4a.642.642,0,0,0-.07.826,3.076,3.076,0,0,1-.435,3.622,3.168,3.168,0,0,1-3.463.8,3.064,3.064,0,0,1-1.966-3.009.842.842,0,0,0-.54-.918c-.818-.426-1.617-.891-2.411-1.362a.665.665,0,0,0-.84.014,2.978,2.978,0,0,1-3.536,0,.628.628,0,0,0-.783-.055q-1.3.775-2.627,1.492a.644.644,0,0,0-.375.7,3.138,3.138,0,1,1-6.262.4,3.151,3.151,0,0,1,2.926-3.324,3.208,3.208,0,0,1,2.366.817c1.066-.6,2.147-1.2,3.2-1.837.141-.086.175-.427.178-.651a3.066,3.066,0,0,1,1.85-2.972,2.973,2.973,0,0,1,3.4.525,2.932,2.932,0,0,1,1.03,2.467.708.708,0,0,0,.416.794C501.449,220,502.424,220.571,503.419,221.134Zm-5.264-2.621a1.25,1.25,0,1,0-2.5.026,1.25,1.25,0,0,0,2.5-.026Zm14.871-7.25a1.245,1.245,0,0,0,1.164,1.313,1.249,1.249,0,1,0-1.164-1.313ZM505.6,224.691a1.262,1.262,0,0,0,1.232-1.257,1.3,1.3,0,0,0-1.27-1.235,1.276,1.276,0,0,0-1.222,1.273A1.237,1.237,0,0,0,505.6,224.691Zm-17.35,0a1.251,1.251,0,0,0,1.223-1.26,1.282,1.282,0,0,0-1.266-1.23,1.306,1.306,0,0,0-1.232,1.274A1.27,1.27,0,0,0,488.25,224.691Z" fill="#fff"/>
    <g id="Group_7441" data-name="Group 7441">
      <path id="Path_7535" data-name="Path 7535" d="M496,211.558c1.83,0,3.668-.111,5.488.026a5.744,5.744,0,0,1,5.144,5.528c.032,1.147.02,2.3,0,3.445a1.594,1.594,0,1,1-3.188-.018c-.013-1.032,0-2.064-.005-3.1a2.628,2.628,0,0,0-2.649-2.734q-4.82-.051-9.639,0a2.6,2.6,0,0,0-2.615,2.707c-.015,1.032.009,2.064-.01,3.1a1.59,1.59,0,0,1-1.15,1.576,1.476,1.476,0,0,1-1.713-.589,2.106,2.106,0,0,1-.312-1.019c-.041-1.014-.022-2.03-.014-3.046a5.856,5.856,0,0,1,5.914-5.934c1.581-.015,3.163,0,4.744,0Z" fill="#fff"/>
      <path id="Path_7536" data-name="Path 7536" d="M502.367,202.984A6.391,6.391,0,1,1,496,196.59,6.392,6.392,0,0,1,502.367,202.984Zm-3.2-.015a3.182,3.182,0,0,0-3.209-3.181,3.2,3.2,0,1,0,3.209,3.181Z" fill="#fff"/>
    </g>
  </g>
</svg>
