<svg id="MENU_OPTION" data-name="MENU OPTION" xmlns="http://www.w3.org/2000/svg" width="50" height="50" viewBox="0 0 50 50">
  <rect id="Rectangle_4382" data-name="Rectangle 4382" width="50" height="50" rx="5" fill="#fff" opacity="0.0"/>
  <g id="Group_7437" data-name="Group 7437" transform="translate(-364.331 -123.678)">
    <path id="Path_7521" data-name="Path 7521" d="M403.155,163.678a6.51,6.51,0,0,1-.66-.514q-3.651-3.635-7.289-7.284a2.261,2.261,0,0,1-.17-.208c-.728.485-1.383.983-2.093,1.383a12.475,12.475,0,0,1-18.313-8.177c-.12-.54-.167-1.1-.25-1.645-.012-.085-.033-.169-.05-.253v-1.64c.075-.5.129-1,.228-1.5a12.312,12.312,0,0,1,5.907-8.406A11.7,11.7,0,0,1,387.4,133.7a11.945,11.945,0,0,1,10.436,6.64c2.5,4.819,1.928,9.475-1.384,13.784l-.184.242a2,2,0,0,1,.261.189q3.72,3.716,7.436,7.434a.939.939,0,0,1-.3,1.646.193.193,0,0,0-.041.04Zm-16.334-6.87A10.626,10.626,0,1,0,376.2,146.151,10.658,10.658,0,0,0,386.821,156.808Z" fill="#fff"/>
    <path id="Path_7522" data-name="Path 7522" d="M386.836,146.21c1.073,0,2.152-.065,3.219.015a3.368,3.368,0,0,1,3.017,3.242c.019.673.012,1.347,0,2.021a.935.935,0,1,1-1.87-.011c-.008-.605,0-1.211,0-1.816a1.543,1.543,0,0,0-1.554-1.6q-2.826-.029-5.654,0a1.526,1.526,0,0,0-1.533,1.588c-.009.605.005,1.211-.006,1.816a.931.931,0,0,1-.674.924.865.865,0,0,1-1.005-.345,1.236,1.236,0,0,1-.183-.6c-.024-.594-.013-1.191-.008-1.786a3.433,3.433,0,0,1,3.468-3.48c.928-.01,1.855,0,2.783,0Z" fill="#fff"/>
    <path id="Path_7523" data-name="Path 7523" d="M390.571,141.181a3.748,3.748,0,1,1-3.735-3.75A3.749,3.749,0,0,1,390.571,141.181Zm-1.875-.009a1.867,1.867,0,0,0-1.883-1.866,1.874,1.874,0,0,0,.015,3.748A1.868,1.868,0,0,0,388.7,141.172Z" fill="#fff"/>
  </g>
</svg>
