<svg id="MENU_OPTION" data-name="MENU OPTION" xmlns="http://www.w3.org/2000/svg" width="50" height="50" viewBox="0 0 50 50">
  <rect id="Rectangle_4382" data-name="Rectangle 4382" width="50" height="50" rx="5" fill="#fff" opacity="0.0"/>
  <g id="Group_7398" data-name="Group 7398" transform="translate(-164.547 -277.011)">
    <path id="Path_7409" data-name="Path 7409" d="M172.359,337.61c.051-.2.1-.408.154-.611a4.55,4.55,0,0,1,4.327-3.352,15.438,15.438,0,0,1,2.476.09,4.314,4.314,0,0,1,3.107,2.185c.062.1.119.21.173.306.493-.4.955-.822,1.464-1.177a7.589,7.589,0,0,1,4.406-1.4,26.3,26.3,0,0,1,3.413.135,7.5,7.5,0,0,1,4.336,2.235c.064.063.125.128.191.189.014.013.04.014.083.029a4.675,4.675,0,0,1,1.525-1.782,4.293,4.293,0,0,1,2.515-.807,14.757,14.757,0,0,1,2.7.142,4.432,4.432,0,0,1,3.493,4.33c.014,2.432.008,4.865,0,7.3a2.029,2.029,0,0,1-2.09,2.076c-1.879.007-3.759,0-5.638,0h-.384c-.034.155-.059.3-.1.435a2.323,2.323,0,0,1-2.2,1.712q-6.763.014-13.526,0a2.317,2.317,0,0,1-2.25-1.861c-.019-.087-.043-.174-.07-.287H174.8a2.1,2.1,0,0,1-2.444-1.614Zm17.178,10.022h6.541c.408,0,.514-.1.515-.476,0-1.849.019-3.7-.006-5.545a6.028,6.028,0,0,0-4.868-5.8,18.034,18.034,0,0,0-3.072-.144,6.1,6.1,0,0,0-6.149,6.164c0,1.748,0,3.5,0,5.243,0,.485.076.559.567.559Zm-9.056-2.167c0-.148,0-.27,0-.391,0-1.154-.039-2.31.021-3.461a22.2,22.2,0,0,1,.343-2.248,7.89,7.89,0,0,0,.165-1.181,2.438,2.438,0,0,0-2.054-2.458,12.428,12.428,0,0,0-1.872-.063,2.536,2.536,0,0,0-2.71,2.706q0,3.378,0,6.756v.34Zm24.214.005a1.5,1.5,0,0,0,.02-.16c0-2.408.013-4.817-.007-7.225a2.394,2.394,0,0,0-1.986-2.341,10.4,10.4,0,0,0-2.5-.032,2.583,2.583,0,0,0-2.037,3.474,8.166,8.166,0,0,1,.349,1.669c.067,1.42.057,2.843.078,4.264,0,.117,0,.234,0,.352Z" transform="translate(0 -32.641)" fill="#fff"/>
    <path id="Path_7410" data-name="Path 7410" d="M221.857,292.848a5.84,5.84,0,1,1-5.837-5.837A5.857,5.857,0,0,1,221.857,292.848Zm-2.014.02a3.826,3.826,0,1,0-3.823,3.828A3.84,3.84,0,0,0,219.843,292.868Z" transform="translate(-26.473)" fill="#fff"/>
    <path id="Path_7411" data-name="Path 7411" d="M181.663,301.363a3.7,3.7,0,1,1-3.706,3.683A3.7,3.7,0,0,1,181.663,301.363Zm1.663,3.684a1.677,1.677,0,1,0-1.671,1.7A1.683,1.683,0,0,0,183.325,305.047Z" transform="translate(-3.919 -10.046)" fill="#fff"/>
    <path id="Path_7412" data-name="Path 7412" d="M264.105,305.047a3.691,3.691,0,1,1-3.7-3.684A3.705,3.705,0,0,1,264.105,305.047Zm-2.014.005a1.677,1.677,0,1,0-1.677,1.69A1.683,1.683,0,0,0,262.091,305.052Z" transform="translate(-59.055 -10.046)" fill="#fff"/>
  </g>
</svg>
