<svg id="MENU_OPTION" data-name="MENU OPTION" xmlns="http://www.w3.org/2000/svg" width="50" height="50" viewBox="0 0 50 50">
  <rect id="Rectangle_4382" data-name="Rectangle 4382" width="50" height="50" rx="5" fill="#fff" opacity="0.0"/>
  <g id="Group_7440" data-name="Group 7440" transform="translate(-793 -157.588)">
    <path id="Path_7528" data-name="Path 7528" d="M835.5,176.861c-.024.074-.055.146-.073.221a2.8,2.8,0,0,1-2.684,2.168c-1.23.019-2.459,0-3.689.014a1.327,1.327,0,0,0-.58.142c-1.591.831-3.175,1.678-4.763,2.516a1.124,1.124,0,0,1-1.415-.135,1.2,1.2,0,0,1-.309-1.133c.066-.415.127-.83.188-1.246a.947.947,0,0,0-.014-.155c-.208,0-.419,0-.629,0a2.751,2.751,0,0,1-2.713-2.665q-.057-3.135,0-6.272a2.748,2.748,0,0,1,2.772-2.715q5.551-.027,11.1,0a2.8,2.8,0,0,1,2.74,2.19,1.58,1.58,0,0,0,.07.184Zm-10.954,2.068.515-.27c.864-.458,1.729-.913,2.589-1.377a2.259,2.259,0,0,1,1.14-.283c1.252.02,2.505.009,3.757.006.5,0,.7-.2.7-.707q0-2.88,0-5.761c0-.482-.205-.691-.684-.691q-5.415,0-10.829,0c-.467,0-.671.2-.672.663q-.008,2.914,0,5.829c0,.472.2.663.665.667.569,0,1.139,0,1.708,0a1.125,1.125,0,0,1,1.2,1.289C824.611,178.487,824.576,178.676,824.542,178.929Z" fill="#fff"/>
    <path id="Path_7529" data-name="Path 7529" d="M800.5,192.823c.051-.183.1-.368.155-.549a3.73,3.73,0,0,1,2.023-2.364c1.226-.572,2.466-1.112,3.705-1.654a1.269,1.269,0,0,1,.5-.083q3.963-.012,7.926-.005a1.45,1.45,0,0,1,.556.138c1.2.524,2.406,1.028,3.581,1.6a3.69,3.69,0,0,1,2.189,3.428c.029,1.023.01,2.046,0,3.069a1.128,1.128,0,1,1-2.252,0q-.008-1.467,0-2.933a1.6,1.6,0,0,0-1.014-1.59c-.849-.384-1.7-.759-2.585-1.152-.074.116-.149.225-.216.339q-1.609,2.73-3.218,5.462a1.106,1.106,0,0,1-1.555.518,1.63,1.63,0,0,1-.527-.558c-1.072-1.8-2.128-3.6-3.189-5.4-.068-.115-.14-.229-.225-.367-.959.436-1.912.835-2.834,1.3a1.433,1.433,0,0,0-.766,1.357c-.006.932,0,1.864,0,2.8,0,.808-.273,1.235-.883,1.382-.58.139-1.03-.137-1.372-.842Zm12.328-2.39h-4.015l2.007,3.409Z" fill="#fff"/>
    <path id="Path_7530" data-name="Path 7530" d="M817.431,179.55a21.894,21.894,0,0,1-.33,2.965,6.466,6.466,0,0,1-12.628-.6,15.346,15.346,0,0,1,.008-4.854,5.045,5.045,0,0,1,4.882-4.089,29.552,29.552,0,0,1,3.647.078,5.033,5.033,0,0,1,4.312,4.713c.028.59,0,1.182,0,1.773Zm-2.36,1.08a12.666,12.666,0,0,1-6.406-.85.487.487,0,0,0-.352.068c-.493.273-.97.577-1.47.838-.164.085-.243.145-.227.343a4.1,4.1,0,0,0,2.539,3.666,4.006,4.006,0,0,0,4.386-.586A4.1,4.1,0,0,0,815.071,180.63Zm-8.427-2.383c.321-.175.444-.337.7-.914a1.147,1.147,0,0,1,1.091-.729,1.1,1.1,0,0,1,1.036.841.481.481,0,0,0,.345.364,10.317,10.317,0,0,0,3.806.672c.483-.008.965-.072,1.437-.11a2.856,2.856,0,0,0-2.709-3.142c-.99-.027-1.981-.022-2.97,0a3,3,0,0,0-.959.206A2.792,2.792,0,0,0,806.644,178.247Z" fill="#fff"/>
    <path id="Path_7531" data-name="Path 7531" d="M825.993,173.418a1.138,1.138,0,0,1,1.154-1.136,1.156,1.156,0,0,1,1.157,1.141,1.173,1.173,0,0,1-1.179,1.161A1.157,1.157,0,0,1,825.993,173.418Z" fill="#fff"/>
    <path id="Path_7532" data-name="Path 7532" d="M823.948,172.289a1.138,1.138,0,1,1-1.139,1.156A1.146,1.146,0,0,1,823.948,172.289Z" fill="#fff"/>
    <path id="Path_7533" data-name="Path 7533" d="M829.2,173.419a1.138,1.138,0,1,1,1.137,1.147A1.127,1.127,0,0,1,829.2,173.419Z" fill="#fff"/>
  </g>
</svg>
