<svg id="MENU_OPTION" data-name="MENU OPTION" xmlns="http://www.w3.org/2000/svg" width="50" height="50" viewBox="0 0 50 50">
  <rect id="Rectangle_4382" data-name="Rectangle 4382" width="50" height="50" rx="5" fill="#fff" opacity="0.0"/>
  <g id="Group_7436" data-name="Group 7436" transform="translate(-567.81 -167.057)">
    <path id="Path_7517" data-name="Path 7517" d="M578.186,192.033q0-5.546,0-11.091a3.792,3.792,0,0,1,3.18-3.829,3.971,3.971,0,0,1,.748-.053q6.871,0,13.744,0a3.8,3.8,0,0,1,3.935,3.91q.006,1.31,0,2.618a1.037,1.037,0,1,1-2.069.022c-.012-.861,0-1.723,0-2.584a1.743,1.743,0,0,0-1.9-1.893q-6.84,0-13.679,0a1.742,1.742,0,0,0-1.887,1.9q0,11.01,0,22.019a1.747,1.747,0,0,0,1.909,1.913q2.994.006,5.988,0a1.086,1.086,0,0,1,1.079.593,1.026,1.026,0,0,1-.834,1.474c-.12.01-.24.007-.36.007-1.909,0-3.82-.059-5.726.015a3.971,3.971,0,0,1-4.151-4.159C578.245,199.276,578.186,195.654,578.186,192.033Z" fill="#fff"/>
    <path id="Path_7518" data-name="Path 7518" d="M592.31,206.957a2.437,2.437,0,0,1-2.516-2.641c.091-1.424.208-2.847.324-4.27a2.363,2.363,0,0,1,.7-1.51q4.254-4.257,8.514-8.507a2.393,2.393,0,0,1,3.461,0q1.971,1.937,3.909,3.907a2.385,2.385,0,0,1,.022,3.46q-4.248,4.285-8.53,8.535a2.33,2.33,0,0,1-1.483.687c-1.423.121-2.847.224-4.27.334C592.4,206.96,592.354,206.957,592.31,206.957Zm-.06-2.092c1.474-.114,2.855-.217,4.234-.335a.654.654,0,0,0,.358-.2q4.168-4.156,8.329-8.322c.26-.26.26-.4,0-.665q-1.883-1.887-3.771-3.769c-.257-.256-.4-.251-.662.012q-4.166,4.161-8.323,8.329a.747.747,0,0,0-.2.424c-.116,1.346-.216,2.693-.319,4.041C591.87,204.722,592.011,204.871,592.25,204.865Z" fill="#fff"/>
    <path id="Path_7519" data-name="Path 7519" d="M599.792,187.174c0,.25.01.5,0,.75a1.032,1.032,0,0,1-.964.974.994.994,0,0,1-1.064-.853,10.5,10.5,0,0,1,0-1.756.967.967,0,0,1,1.088-.851,1.013,1.013,0,0,1,.944.986c.01.25,0,.5,0,.75Z" fill="#fff"/>
    <rect id="Rectangle_4393" data-name="Rectangle 4393" width="12.212" height="1.745" rx="0.872" transform="translate(582.883 182.37)" fill="#fff"/>
    <rect id="Rectangle_4394" data-name="Rectangle 4394" width="12.212" height="1.745" rx="0.872" transform="translate(582.883 185.423)" fill="#fff"/>
  </g>
</svg>
