<svg id="MENU_OPTION" data-name="MENU OPTION" xmlns="http://www.w3.org/2000/svg" width="50" height="50" viewBox="0 0 50 50">
  <path id="Path_7524" data-name="Path 7524" d="M5,0H45a5,5,0,0,1,5,5V45a5,5,0,0,1-5,5H5a5,5,0,0,1-5-5V5A5,5,0,0,1,5,0Z" fill="#fff" opacity="0.0"/>
  <g id="Group_7439" data-name="Group 7439" transform="translate(-685.58 -164)">
    <path id="Path_7525" data-name="Path 7525" d="M703.975,204a1.05,1.05,0,0,1-.7-.725.932.932,0,0,1,.951-1.148c1.16-.006,2.319,0,3.479,0h.388c-.106-.131-.178-.226-.255-.317a48.247,48.247,0,0,1-5.217-7.4,23.84,23.84,0,0,1-2.77-7.166,11.838,11.838,0,0,1,.614-7.2,9.734,9.734,0,0,1,5.343-5.1,11.8,11.8,0,0,1,3.759-.9,1.237,1.237,0,0,0,.2-.046H711.4c.633.1,1.275.159,1.9.3a10.335,10.335,0,0,1,6.786,4.581,9.969,9.969,0,0,1,1.491,4.986,17.192,17.192,0,0,1-1.495,7.391,37.565,37.565,0,0,1-5.071,8.449c-.552.719-1.133,1.416-1.7,2.123-.065.081-.13.164-.221.279.129.007.221.015.313.015h3.361c.627,0,1.021.25,1.127.714.114.5-.112.875-.7,1.161Zm6.621-1.845c.88-1.069,1.736-2.07,2.548-3.1a37.285,37.285,0,0,0,5.127-8.353,16.74,16.74,0,0,0,1.465-6.017,8,8,0,0,0-5.222-8.042,10.519,10.519,0,0,0-7.628-.089,7.878,7.878,0,0,0-4.835,4.508,9.659,9.659,0,0,0-.446,5.384,20.546,20.546,0,0,0,2.1,5.99,42.7,42.7,0,0,0,5.035,7.523C709.334,200.677,709.946,201.384,710.6,202.155Z" fill="#fff"/>
    <g id="Group_7438" data-name="Group 7438">
      <path id="Path_7526" data-name="Path 7526" d="M710.665,187.295c.943,0,1.89-.057,2.828.013a2.959,2.959,0,0,1,2.65,2.848c.017.592.01,1.184,0,1.776a.822.822,0,1,1-1.643-.01c-.007-.532,0-1.064,0-1.6a1.354,1.354,0,0,0-1.365-1.409q-2.483-.027-4.966,0a1.339,1.339,0,0,0-1.347,1.394c-.008.532.005,1.064-.005,1.6a.818.818,0,0,1-.593.811.761.761,0,0,1-.883-.3,1.087,1.087,0,0,1-.16-.525c-.021-.522-.011-1.046-.007-1.569a3.016,3.016,0,0,1,3.046-3.057c.815-.008,1.63,0,2.445,0Z" fill="#fff"/>
      <path id="Path_7527" data-name="Path 7527" d="M713.947,182.877a3.293,3.293,0,1,1-3.282-3.294A3.294,3.294,0,0,1,713.947,182.877Zm-1.648-.007a1.639,1.639,0,0,0-1.654-1.639,1.646,1.646,0,1,0,1.654,1.639Z" fill="#fff"/>
    </g>
  </g>
</svg>
